#Comment line ignore any data following # character
#Hierarchical Translation and Rotation (.htr) file
[Header]		#Header keywords are followed by a single value
FileType htr		#Single word string
DataType HTRS		#Translation followed by rotation and scale data
FileVersion 1		#integer
NumSegments 15		#integer
NumFrames 9		#integer
DataFrameRate 60		#integer, data frame rate in this file
EulerRotationOrder ZYX
CalibrationUnits mm
RotationUnits Degrees
GlobalAxisofGravity Y
BoneLengthAxis Y
ScaleFactor 1.000000
[SegmentNames&Hierarchy]
#CHILD	PARENT
1cou	1buste
1buste	1bassin
1brasG	1buste
1brasD	1buste
1avbrasG	1brasG
1avbrasD	1brasD
1mainG	1avbrasG
1mainD	1avbrasD
1bassin	GLOBAL
1cuisseG	1bassin
1cuisseD	1bassin
1moletG	1cuisseG
1moletD	1cuisseD
1piedG	1moletG
1piedD	1moletD
[BasePosition]
#SegmentName Tx, Ty, Tz, Rx, Ry, Rz, BoneLength
1cou	0.000002	394.639771	0.000003	47.447697	-6.500580	2.097482	232.574402
1buste	0.331046	98.159424	9.920088	5.813737	-6.959647	-0.900074	394.639771
1brasG	222.293304	333.760773	-3.143221	-5.521868	-4.449825	-174.025208	338.016541
1brasD	-186.675308	347.235016	-30.968008	-5.508482	16.777920	169.824814	318.101379
1avbrasG	0.000004	338.016571	-0.000002	34.403133	17.432653	23.106703	253.821075
1avbrasD	-0.000007	318.101410	-0.000013	32.381824	-10.529597	-11.344105	276.946075
1mainG	0.000006	253.821091	-0.000001	-3.773718	-0.485368	-1.748444	73.639816
1mainD	-0.000031	276.946106	-0.000010	-3.909555	0.199285	0.225476	80.942635
1bassin	396.031860	1037.839600	833.112305	178.297836	19.764000	-179.799622	97.859962
1cuisseG	108.625954	-0.934603	-40.474510	172.403458	-4.353497	-0.165467	517.714233
1cuisseD	-106.972656	-1.326527	-48.733826	172.076172	-12.757409	2.045154	501.698334
1moletG	0.000006	517.714233	-0.000009	157.872192	5.331374	176.676331	488.075745
1moletD	-0.000005	501.698303	0.000003	156.316269	3.295414	-177.725830	511.880615
1piedG	0.000002	488.075745	-0.000006	99.880898	-0.000004	0.000000	242.425140
1piedD	-0.000009	511.880646	-0.000013	102.622849	0.000000	0.000000	237.138092
#Beginning of Data. Separated by tabs
[1cou]
#Fr	Tx	Ty	Tz	Rx	Ry	Rz	SF
100	0.000001	-45.773224	0.000014	-1.045221	-27.238977	18.308817	0.966028
101	0.000001	-45.685303	-0.000020	0.405863	-26.265282	18.047186	0.976175
102	-0.000002	-45.776459	0.000018	1.741394	-24.889269	16.977755	0.976865
103	-0.000000	-45.634521	-0.000006	1.986004	-24.766600	17.418016	0.983252
104	0.000003	-45.423462	-0.000004	1.556160	-25.050154	18.146734	0.986771
105	-0.000000	-45.527618	-0.000005	1.352394	-24.919558	17.836723	0.986120
106	-0.000005	-45.551239	-0.000007	0.919075	-24.902592	17.698246	0.984746
107	-0.000004	-45.572906	0.000009	0.317300	-24.974606	17.804241	0.982785
108	-0.000007	-45.434631	-0.000003	-0.393025	-24.630587	17.657116	0.982046
[1buste]
#Fr	Tx	Ty	Tz	Rx	Ry	Rz	SF
100	0.010975	-12.229790	5.003719	4.050279	-2.273094	-0.692972	0.884013
101	-0.261249	-12.215065	5.051047	4.099930	-1.850273	-0.490281	0.884235
102	-0.474434	-12.261200	5.182063	4.206117	-1.719571	-0.355810	0.884004
103	-0.675435	-12.216713	5.130587	4.183688	-1.470733	-0.200928	0.884364
104	-0.821406	-12.151634	5.060426	4.142527	-1.179819	-0.077150	0.884899
105	-0.830152	-12.183716	5.092598	4.167499	-1.176040	-0.074576	0.884635
106	-0.933831	-12.162605	4.933016	4.071036	-1.225050	0.004604	0.884575
107	-0.972810	-12.133789	4.731204	3.941521	-1.331801	0.041866	0.884520
108	-0.927441	-12.085175	4.653352	3.882759	-1.476839	0.010426	0.884871
[1brasG]
#Fr	Tx	Ty	Tz	Rx	Ry	Rz	SF
100	-53.207916	-18.377655	41.460945	75.322624	28.203438	64.181023	0.896750
101	-53.589691	-18.085297	41.902534	75.292549	28.490377	64.050789	0.896544
102	-53.841125	-17.783020	42.166588	75.183907	28.611845	64.148720	0.897300
103	-54.164948	-17.218109	42.718529	75.090157	28.690891	64.504684	0.898388
104	-54.436371	-17.169861	42.850922	75.082115	28.665218	64.911446	0.899351
105	-54.483978	-17.593262	42.476707	74.892250	28.715277	65.040398	0.899833
106	-54.489700	-18.016785	42.045036	74.619164	28.944521	64.832825	0.899468
107	-54.514160	-18.205139	41.548851	74.248192	29.218945	64.397858	0.899862
108	-54.610352	-18.508057	40.986099	73.952599	29.406540	63.885509	0.899642
[1brasD]
#Fr	Tx	Ty	Tz	Rx	Ry	Rz	SF
100	8.430847	-91.790024	-28.378759	-2.321746	-30.398697	17.162872	0.902963
101	8.717087	-92.376083	-30.518820	-1.947894	-29.381546	17.396938	0.900727
102	8.821503	-92.797546	-31.758898	-1.780418	-28.545103	17.656864	0.898686
103	8.986053	-92.906128	-32.809425	-1.722719	-28.104170	17.913897	0.897349
104	9.125275	-92.869919	-33.295486	-1.719489	-28.195190	18.130123	0.896293
105	9.062531	-92.578720	-32.800354	-1.839454	-28.678867	18.300003	0.895128
106	8.867340	-91.938385	-31.395296	-2.126914	-29.240553	18.464132	0.894091
107	8.539673	-91.166931	-28.867311	-2.608817	-29.743399	18.643238	0.892880
108	8.254288	-90.210571	-27.357618	-2.878160	-30.065947	18.718893	0.891601
[1avbrasG]
#Fr	Tx	Ty	Tz	Rx	Ry	Rz	SF
100	-0.000000	-34.900330	-0.000004	37.392517	-9.268203	25.177305	1.145026
101	-0.000017	-34.969971	0.000002	37.355820	-9.321017	24.844757	1.145857
102	-0.000011	-34.714478	0.000005	37.498974	-9.657909	24.314465	1.147089
103	-0.000001	-34.346436	0.000007	37.793926	-10.219099	23.595968	1.148100
104	-0.000021	-34.021088	0.000008	38.084496	-10.749517	22.907042	1.147541
105	-0.000019	-33.858307	0.000006	38.260044	-11.158521	22.293013	1.148360
106	-0.000002	-33.981537	0.000008	38.259007	-11.349999	21.876183	1.149494
107	-0.000025	-33.848450	0.000006	38.150478	-11.338273	21.751707	1.151182
108	0.000012	-33.922699	0.000003	37.950691	-11.232701	21.663906	1.152159
[1avbrasD]
#Fr	Tx	Ty	Tz	Rx	Ry	Rz	SF
100	0.000012	-30.867584	-0.000022	78.459381	-13.835865	-105.179016	0.876691
101	0.000012	-31.578796	0.000007	79.271828	-14.747475	-106.684425	0.870181
102	0.000006	-32.228180	0.000005	79.874695	-15.345029	-107.883553	0.865522
103	0.000014	-32.653320	0.000001	80.248245	-15.625761	-108.462379	0.867046
104	-0.000002	-32.989319	0.000008	80.568825	-15.785066	-108.836441	0.872010
105	0.000012	-33.359985	-0.000002	80.908966	-15.910716	-109.237259	0.876476
106	0.000007	-33.689880	0.000011	81.238014	-15.894857	-109.805962	0.878945
107	0.000008	-34.075043	-0.000004	81.489502	-15.667816	-110.460571	0.879934
108	0.000013	-34.481903	0.000014	81.700233	-15.510665	-110.976997	0.879881
[1mainG]
#Fr	Tx	Ty	Tz	Rx	Ry	Rz	SF
100	-0.000042	36.810715	-0.000043	2.351280	0.364991	1.820263	1.107749
101	-0.000001	37.021591	0.000020	2.346205	0.365851	1.811100	1.108653
102	-0.000002	37.334152	-0.000013	2.351496	0.365859	1.810727	1.109898
103	0.000003	37.590805	-0.000008	2.363403	0.365354	1.815652	1.110864
104	-0.000014	37.449142	-0.000000	2.373830	0.364895	1.820975	1.110205
105	-0.000003	37.656967	0.000008	2.378712	0.364666	1.822034	1.111024
106	-0.000019	37.944809	-0.000020	2.373595	0.364931	1.817330	1.112244
107	-0.000017	38.373215	0.000019	2.365069	0.365398	1.811039	1.114068
108	-0.000025	38.621109	0.000001	2.350721	0.366341	1.801323	1.115195
[1mainD]
#Fr	Tx	Ty	Tz	Rx	Ry	Rz	SF
100	0.000070	-34.149994	0.000002	2.666466	-0.269467	-0.846643	0.828752
101	0.000041	-35.952942	0.000008	2.673717	-0.204294	-0.755800	0.821839
102	0.000022	-37.243179	0.000006	2.678524	-0.161511	-0.692378	0.816913
103	0.000034	-36.821121	0.000009	2.694228	-0.144166	-0.660360	0.818384
104	0.000024	-35.446381	0.000009	2.717346	-0.136223	-0.640359	0.823397
105	0.000042	-34.209641	0.000005	2.740613	-0.130280	-0.623820	0.827900
106	0.000024	-33.525650	0.000016	2.756484	-0.130310	-0.618624	0.830384
107	0.000031	-33.251907	0.000023	2.764124	-0.139921	-0.629406	0.831389
108	0.000044	-33.266632	0.000009	2.769608	-0.146943	-0.636994	0.831323
[1bassin]
#Fr	Tx	Ty	Tz	Rx	Ry	Rz	SF
100	-945.668030	-840.416382	-83.888916	-107.943825	-7.108553	98.431274	0.902486
101	-948.968994	-841.554749	-84.002930	-108.273537	-6.941748	97.955315	0.902983
102	-951.465576	-842.587891	-84.518799	-108.709023	-6.722072	97.386276	0.904478
103	-953.126221	-844.025146	-85.642334	-109.116058	-6.505082	97.059830	0.904183
104	-954.188721	-845.527161	-87.104004	-109.518852	-6.228651	96.874443	0.903019
105	-954.705261	-846.766724	-88.474915	-110.032883	-5.857226	96.608101	0.902888
106	-954.558655	-847.769836	-89.911621	-110.441040	-5.549062	96.355293	0.903975
107	-954.223999	-848.644775	-91.496887	-110.787010	-5.261186	96.113747	0.904675
108	-953.673340	-849.275879	-93.192688	-111.139755	-5.006675	95.854820	0.905589
[1cuisseG]
#Fr	Tx	Ty	Tz	Rx	Ry	Rz	SF
100	-9.490402	-1.005363	-8.029503	-14.116817	-14.590158	-20.965527	0.995734
101	-9.453438	-1.091295	-8.144947	-14.359891	-15.123888	-21.144215	0.994539
102	-9.272369	-1.162369	-8.105438	-14.564994	-15.310614	-21.210840	0.994320
103	-9.346603	-1.218920	-8.259830	-14.638048	-15.815216	-21.444744	0.993723
104	-9.542313	-1.265634	-8.545063	-14.668044	-16.110050	-21.741795	0.993466
105	-9.527489	-1.277840	-8.666729	-14.548082	-15.907929	-21.860306	0.993485
106	-9.349640	-1.280157	-8.627598	-14.416603	-15.776189	-22.006041	0.993919
107	-9.248528	-1.262630	-8.655792	-14.371198	-15.661795	-22.065594	0.995074
108	-9.138588	-1.239557	-8.718121	-14.312189	-15.662782	-22.090187	0.995779
[1cuisseD]
#Fr	Tx	Ty	Tz	Rx	Ry	Rz	SF
100	5.260551	-0.266138	13.109398	-41.806007	-15.661223	-17.242065	1.096002
101	5.170090	-0.185960	13.254581	-42.290112	-15.667362	-17.417484	1.095534
102	5.001045	-0.135877	13.228909	-42.710648	-15.594017	-17.526388	1.094788
103	4.998192	-0.064474	13.454926	-43.099651	-15.732893	-17.765598	1.094150
104	5.059143	-0.002036	13.839470	-43.449165	-16.006458	-17.971886	1.093641
105	5.021355	-0.003095	13.832317	-43.691341	-16.188864	-17.988338	1.093077
106	4.906052	0.032886	13.556767	-43.967152	-16.329060	-17.967896	1.092591
107	4.820686	0.060789	13.449562	-44.246265	-16.446644	-17.829409	1.092286
108	4.705292	0.055657	13.415981	-44.469856	-16.498106	-17.561970	1.091834
[1moletG]
#Fr	Tx	Ty	Tz	Rx	Ry	Rz	SF
100	-0.000017	-2.208679	0.000013	-28.745914	-15.820415	5.247781	0.957398
101	-0.000004	-2.827271	0.000021	-27.651516	-15.634578	4.598951	0.957961
102	-0.000017	-2.940796	0.000037	-26.966930	-15.013347	4.158021	0.959291
103	-0.000018	-3.249878	0.000002	-25.950623	-14.548334	3.807290	0.960825
104	0.000014	-3.382874	-0.000006	-25.212616	-14.566343	3.630048	0.962265
105	0.000005	-3.372681	0.000011	-24.637619	-14.849248	3.767483	0.964265
106	-0.000011	-3.148071	-0.000002	-24.069874	-14.845416	3.996940	0.964744
107	0.000003	-2.550293	-0.000002	-23.494324	-15.510587	4.428707	0.965814
108	-0.000015	-2.185364	0.000026	-22.835279	-16.261337	4.832786	0.966063
[1moletD]
#Fr	Tx	Ty	Tz	Rx	Ry	Rz	SF
100	-0.000005	48.163879	0.000011	-89.229492	2.495305	5.495169	0.862862
101	0.000005	47.929260	0.000005	-89.173805	2.228138	5.059193	0.863107
102	-0.000008	47.555054	-0.000024	-89.324783	1.963800	4.984816	0.864016
103	-0.000001	47.234985	-0.000003	-89.477379	1.576585	4.817266	0.864792
104	0.000012	46.979675	0.000009	-89.528465	1.186962	4.593121	0.865792
105	0.000003	46.696350	-0.000008	-89.471024	0.671975	4.172967	0.866517
106	0.000003	46.453003	0.000000	-89.220978	0.169713	3.439500	0.867361
107	0.000002	46.299805	-0.000017	-88.885635	-0.148214	2.782228	0.868778
108	0.000005	46.072937	-0.000034	-88.454720	-0.199857	1.970547	0.869632
[1piedG]
#Fr	Tx	Ty	Tz	Rx	Ry	Rz	SF
100	0.000010	-20.792999	0.000028	10.273719	-0.000001	-0.000008	1.026467
101	0.000001	-20.518158	0.000019	10.266990	-0.000000	-0.000000	1.027328
102	0.000006	-19.868835	-0.000005	10.236294	-0.000002	-0.000007	1.031006
103	0.000013	-19.120544	0.000033	10.057929	-0.000001	-0.000006	1.028064
104	0.000027	-18.417725	0.000079	10.088850	0.000000	-0.000001	1.023049
105	-0.000007	-17.441620	0.000030	10.264454	0.000001	0.000002	1.024693
106	-0.000014	-17.207428	0.000018	10.437223	0.000000	-0.000000	1.030382
107	-0.000018	-16.685303	0.000002	10.358958	-0.000000	-0.000000	1.027471
108	0.000048	-16.564026	0.000009	10.175273	0.000001	0.000003	1.029404
[1piedD]
#Fr	Tx	Ty	Tz	Rx	Ry	Rz	SF
100	0.000022	-70.198456	-0.000024	10.041670	-0.000001	-0.000002	1.027822
101	0.000021	-70.072845	0.000069	10.145305	-0.000000	0.000000	1.031348
102	0.000007	-69.607727	0.000037	10.452213	-0.000000	-0.000001	1.042709
103	0.000004	-69.210358	-0.000007	10.571096	-0.000000	0.000000	1.045984
104	0.000009	-68.698486	0.000053	10.535939	-0.000001	-0.000002	1.049304
105	0.000008	-68.327637	-0.000011	10.520668	0.000000	0.000001	1.052256
106	0.000013	-67.895264	-0.000010	10.404565	-0.000001	-0.000002	1.052700
107	0.000020	-67.169739	-0.000013	10.403713	0.000000	0.000001	1.053642
108	0.000014	-66.733063	0.000054	10.247629	0.000000	0.000001	1.053657
[EndOfFile]
